<svg id="Capa_1" enable-background="new 0 0 512 512" height="512" viewBox="0 0 512 512" width="512" xmlns="http://www.w3.org/2000/svg"><g><g><g><circle cx="256" cy="145" fill="#f9f9f9" r="130"/><path d="m386 145c0-71.797-58.203-130-130-130v260c71.797 0 130-58.203 130-130z" fill="#e2dff4"/><g><g><path d="m241 275v-30c0-8.284 6.716-15 15-15 8.284 0 15 6.716 15 15v30z" fill="#0a617d"/></g><path d="m271 275v-30c0-8.284-6.716-15-15-15v45z" fill="#05303d"/><g><path d="m358.531 63.683-21.214 21.214c-5.858 5.858-15.355 5.858-21.213 0-5.858-5.858-5.858-15.355 0-21.213l21.214-21.214z" fill="#05303d"/></g><g><path d="m153.469 226.317 21.214-21.214c5.858-5.858 15.355-5.858 21.213 0 5.858 5.858 5.858 15.355 0 21.213l-21.214 21.214z" fill="#0a617d"/></g><g><path d="m386 160h-30c-8.284 0-15-6.716-15-15 0-8.284 6.716-15 15-15h30z" fill="#05303d"/></g><g><path d="m126 130h30c8.284 0 15 6.716 15 15 0 8.284-6.716 15-15 15h-30z" fill="#0a617d"/></g><g><path d="m337.317 247.531-21.214-21.214c-5.858-5.858-5.858-15.355 0-21.213 5.858-5.858 15.355-5.858 21.213 0l21.214 21.214z" fill="#05303d"/></g><g><path d="m174.683 42.469 21.214 21.214c5.858 5.858 5.858 15.355 0 21.213-5.858 5.858-15.355 5.858-21.213 0l-21.214-21.214z" fill="#0a617d"/></g><g><path d="m271 15v30c0 8.284-6.716 15-15 15-8.284 0-15-6.716-15-15v-30z" fill="#0a617d"/></g><path d="m256 60c8.284 0 15-6.716 15-15v-30h-15z" fill="#05303d"/></g><g><path d="m256 290c-79.953 0-145-65.047-145-145s65.047-145 145-145 145 65.047 145 145-65.047 145-145 145zm0-260c-63.411 0-115 51.589-115 115s51.589 115 115 115 115-51.589 115-115-51.589-115-115-115z" fill="#e273d3"/></g><path d="m371 145c0 63.411-51.589 115-115 115v30c79.953 0 145-65.047 145-145s-65.047-145-145-145v30c63.411 0 115 51.589 115 115z" fill="#b473f1"/><g><path d="m256 160h-40c-8.284 0-15-6.716-15-15s6.716-15 15-15h25v-25c0-8.284 6.716-15 15-15s15 6.716 15 15v40c0 8.284-6.716 15-15 15z" fill="#0a617d"/></g><path d="m271 145v-40c0-8.284-6.716-15-15-15v70c8.284 0 15-6.716 15-15z" fill="#05303d"/></g><g><g><g><g><path d="m221.739 511.474c-1.501 0-2.995-.011-4.496-.035-43.823-.685-87.705-11.404-126.908-31.001-5.088-2.533-8.335-7.739-8.335-13.438v-120c0-4.536 2.053-8.829 5.583-11.676 17.227-13.776 37.88-21.934 59.791-23.64 21.914-1.704 43.578 3.155 62.66 14.059l.77.439c6.281 3.59 13.422 5.5 20.654 5.524l63.03.217c10.131.035 19.613 4.042 26.7 11.283 7.086 7.241 10.887 16.807 10.704 26.937-.277 15.313-9.906 28.476-23.331 34.035 3.809-1.011 7.557-2.291 11.231-3.838l141.729-59.676c11.257-4.74 24.052-3.536 34.229 3.22 10.175 6.756 16.25 18.081 16.25 30.296 0 13.459-7.377 25.754-19.252 32.088l-130.717 69.715c-5.542 2.956-11.243 5.789-16.947 8.422-38.44 17.741-80.995 27.068-123.345 27.069z" fill="#ffddce"/></g></g><path d="m495.75 343.883c-10.176-6.756-22.971-7.96-34.229-3.22l-141.729 59.676c-3.675 1.547-7.423 2.827-11.231 3.838 13.425-5.559 23.053-18.721 23.331-34.035.184-10.129-3.618-19.696-10.704-26.937s-16.568-11.248-26.7-11.283l-38.488-.132v177.638c30.766-3.628 61.022-12.072 89.083-25.023 5.704-2.633 11.406-5.466 16.947-8.422l130.717-69.715c11.876-6.334 19.253-18.629 19.253-32.088 0-12.215-6.075-23.54-16.25-30.297z" fill="#ffcbbc"/><g><path d="m77 512h-62c-8.284 0-15-6.716-15-15v-180c0-8.284 6.716-15 15-15h62c8.284 0 15 6.716 15 15v180c0 8.284-6.716 15-15 15z" fill="#0a617d"/></g></g></g></g><g><path d="m183 422c0 8.284 6.716 15 15 15h96.358c32.287 0 59.664-23.19 66.096-53.783l-40.663 17.121c-3.675 1.547-7.423 2.827-11.231 3.838.025-.01.048-.023.073-.033-4.412 1.838-9.236 2.857-14.274 2.857h-96.359c-8.284 0-15 6.716-15 15z" fill="#ffcbbc"/></g><path d="m308.56 404.177c.025-.01.048-.023.073-.033-4.412 1.838-9.236 2.857-14.274 2.857h-38.359v30h38.358c32.287 0 59.664-23.19 66.096-53.783l-40.663 17.121c-3.674 1.547-7.422 2.827-11.231 3.838z" fill="#ffbca7"/></g></svg>