<svg id="Capa_1" enable-background="new 0 0 512 512" height="512" viewBox="0 0 512 512" width="512" xmlns="http://www.w3.org/2000/svg"><g><g><path d="m256 290c-1.452 0-2.904-.211-4.31-.633-32.235-9.67-59.893-29.054-79.982-56.054-20.089-27.001-30.708-59.062-30.708-92.716v-85.597c0-8.284 6.716-15 15-15 18.955 0 35.996-10.532 44.472-27.485l2.111-4.222c2.541-5.083 7.735-8.293 13.417-8.293h80c5.682 0 10.876 3.21 13.417 8.292l2.111 4.223c8.476 16.953 25.517 27.485 44.472 27.485 8.284 0 15 6.716 15 15v85.597c0 33.654-10.619 65.715-30.708 92.716-20.089 27-47.747 46.384-79.982 56.054-1.406.422-2.858.633-4.31.633z" fill="#9ddff6"/><path d="m356 40c-18.955 0-35.996-10.532-44.472-27.484l-2.111-4.223c-2.541-5.083-7.735-8.293-13.417-8.293h-40v290c1.452 0 2.904-.211 4.31-.633 32.235-9.67 59.893-29.054 79.982-56.054 20.089-27.001 30.708-59.062 30.708-92.716v-85.597c0-8.284-6.716-15-15-15z" fill="#6ba7ff"/><path d="m171 68.603v71.995c0 54.256 33.971 101.385 85 118.66 51.029-17.275 85-64.404 85-118.66v-71.995c-22.701-4.285-42.437-18.2-54.125-38.603h-61.75c-11.688 20.403-31.424 34.318-54.125 38.603z" fill="#f5f5ff"/><path d="m286.875 30h-30.875v229.257c51.029-17.275 85-64.404 85-118.66v-71.994c-22.701-4.285-42.437-18.201-54.125-38.603z" fill="#e2e7fa"/><path d="m241.858 188.284c-3.839 0-7.678-1.464-10.606-4.394l-28.284-28.284c-5.858-5.858-5.858-15.355 0-21.213 5.857-5.858 15.355-5.858 21.213 0l17.678 17.677 45.962-45.961c5.857-5.858 15.355-5.858 21.213 0s5.858 15.355 0 21.213l-56.568 56.568c-2.93 2.93-6.769 4.394-10.608 4.394z" fill="#6b61b1"/><path d="m287.82 106.109-31.82 31.82v42.426l53.033-53.033c5.858-5.858 5.858-15.355 0-21.213s-15.356-5.858-21.213 0z" fill="#453d81"/></g><g><g><path d="m105 342c-57.897 0-105 47.103-105 105v50c0 8.284 6.716 15 15 15h156l32.454-101.496c-14.86-39.959-53.384-68.504-98.454-68.504z" fill="#a2e786"/><path d="m171 512 32.454-101.496c-14.86-39.959-53.384-68.504-98.454-68.504v170z" fill="#00cb75"/><path d="m105 372c-35.841 0-65-29.159-65-65s29.159-65 65-65 65 29.159 65 65-29.159 65-65 65z" fill="#ffd5b2"/><path d="m170 307c0-35.841-29.159-65-65-65v130c35.841 0 65-29.159 65-65z" fill="#fac394"/></g><g><path d="m407 342c-44.992 0-83.461 28.448-98.376 68.299l32.376 101.701h156c8.284 0 15-6.716 15-15v-50c0-57.897-47.103-105-105-105z" fill="#ef5ca2"/><path d="m497 512c8.284 0 15-6.716 15-15v-50c0-57.897-47.103-105-105-105v170z" fill="#ea1c81"/><path d="m407 372c-35.841 0-65-29.159-65-65s29.159-65 65-65 65 29.159 65 65-29.159 65-65 65z" fill="#ffd5b2"/><path d="m472 307c0-35.841-29.159-65-65-65v130c35.841 0 65-29.159 65-65z" fill="#fac394"/></g><path d="m341 512h-170v-33.916c0-46.796 37.367-85.626 84.161-86.08 47.252-.458 85.839 37.848 85.839 84.996z" fill="#f5f5ff"/><path d="m256 392.007v119.993h85v-35c0-46.869-38.132-84.993-85-84.993z" fill="#e2e7fa"/><path d="m256 422c-30.327 0-55-24.673-55-55s24.673-55 55-55 55 24.673 55 55-24.673 55-55 55z" fill="#ffd5b2"/><path d="m311 367c0-30.327-24.673-55-55-55v110c30.327 0 55-24.673 55-55z" fill="#fac394"/></g></g></svg>