<svg height="512" viewBox="0 0 58 58" width="512" xmlns="http://www.w3.org/2000/svg"><g id="046---Herbal-Bag" fill="none"><path id="Shape" d="m11.6 18c-1.62679655-2.7262373-2.52235037-5.8262313-2.6-9 0-6.63 4.92-9 11-9s11 2.37 11 9c-.0776496 3.1737687-.9732035 6.2737627-2.6 9z" fill="#cbb292"/><path id="Shape" d="m30.5 23.95c5.7 4.53 9.5 12.22 9.5 19.05.0173635 1.6933326-.2531539 3.3773034-.8 4.98l-8.13 8.09c-3.530245 1.3539702-7.2898473 2.0094383-11.07 1.93-11.05 0-20-4.51-20-15 0-6.83 3.8-14.52 9.5-19.05z" fill="#cbb292"/><g fill="#a59078"><path id="Shape" d="m7 46c-.55228475 0-1-.4477153-1-1 0-15.358 9.06-21.575 9.445-21.832.2970663-.1986397.67754-.2237073.9981001-.0657601.3205602.1579471.5325062.4749131.556.8315.0234939.3565868-.1450338.6986204-.4421001.8972601-.119.08-8.557 5.962-8.557 20.169 0 .5522847-.44771525 1-1 1z"/><path id="Shape" d="m32.959 44.45c-.53629.0004732-.977476-.422183-1-.958-.1093993-4.6899347-1.4227749-9.272975-3.814-13.309-.1866713-.3047475-.1965818-.6859338-.0259983-.9999697.1705835-.3140358.4957453-.5132117.853-.5225.3572548-.0092883.692327.1727222.8789983.4774697 2.5691971 4.3260878 3.9831145 9.240019 4.106 14.27.02313.5517083-.4052971 1.0177403-.957 1.041z"/><path id="Shape" d="m15 40c-.5522847 0-1-.4477153-1-1 0-12.424 5.262-15.723 5.485-15.857.4722035-.2866358 1.0873642-.1362034 1.374.336.2866357.4722035.1362034 1.0873642-.336 1.374-.093.06-4.523 3.047-4.523 14.147 0 .5522847-.4477153 1-1 1z"/><path id="Shape" d="m17 19c-.285718.0005653-.5578629-.1218452-.747-.336-.161-.181-3.913-4.519-1.386-11.984.1767311-.5232898.7442102-.80423112 1.2675-.6275s.8042311.7442102.6275 1.2675c-2.159 6.376.954 9.98.985 10.016.2613314.294286.3257428.7144928.1645581 1.0735441s-.5179869.5901677-.9115581.5904559z"/><path id="Shape" d="m23 19c-.3926889-.0001043-.7489703-.2300322-.9108325-.5878104-.1618623-.3577782-.0993422-.7771759.1598325-1.0721896.132-.152 3.126-3.708.989-10.02-.1767311-.52328979.1042102-1.09076885.6275-1.26749997.5232898-.17673111 1.0907689.10421019 1.2675.62749997 2.527 7.465-1.225 11.8-1.386 11.984-.1891371.2141548-.461282.3365653-.747.336z"/></g><path id="Shape" d="m41.04 56.56c-.02.83-.08 1.34-.08 1.34s-.51.06-1.33.07c-2.36.06-7.32-.23-10.37-3.31-4.1-4.14-3.17-11.77-3.17-11.77s7.59-.92 11.7 3.23c3.05 3.07 3.32 8.06 3.25 10.44z" fill="#14a085"/><path id="Shape" d="m37.266 52.747.432-2.153c.0714531-.3502989-.0494037-.7121083-.3170449-.9491379-.2676412-.2370297-.6414057-.3132693-.9805-.2-.3390943.1132692-.592002.398839-.6634551.7491379l-.167.834-.959-.969.432-2.151c.1088001-.5415152-.2419848-1.0686999-.7835-1.1775s-1.0686999.2419848-1.1775.7835l-.167.831-2.395-2.415c-.3930079-.3899779-1.0269921-.3899779-1.42 0-.3877236.3900375-.3877236 1.0199625 0 1.41l2.41 2.433-.84.167c-.5047571.0998234-.8513798.5663805-.8012313 1.0784641s.480698.9025319.9952313.9025359c.067187.0004396.1342304-.0062648.2-.02l2.136-.425.968.977-.841.168c-.5059297.1000051-.8528314.5683566-.8010282 1.081467s.485319.9026716 1.0010282.899533c.0671881.0004623.1342339-.0062423.2-.02l2.137-.426 3.766 3.814c.82-.01 1.33-.07 1.33-.07s.06-.51.08-1.34z" fill="#33907c"/><path id="Shape" d="m54.3 54.32c-3.51 3.51-9.26 3.76-11.83 3.66-.82-.02-1.32-.08-1.32-.08s-.06-.51-.08-1.34c-.08-2.59.18-8.37 3.69-11.88 4.62-4.63 13.14-3.58 13.14-3.58s1.02 8.58-3.6 13.22z" fill="#26b99a"/><path id="Shape" d="m54.42 44.59c-.3927817-.3849712-1.0227181-.3805035-1.41.01l-2.86 2.87-.235-1.17c-.1068671-.5420675-.6329325-.894867-1.175-.7879999-.5420674.1068671-.8948671.6329324-.788 1.1749999l.49 2.49-1.289 1.289-.23-1.167c-.0691309-.3506562-.3200833-.637795-.6583259-.7532539-.3382426-.115459-.7123883-.0416972-.9815.1935s-.392305.5960977-.3231741.9467539l.489 2.484-4.379 4.39c.02.83.08 1.34.08 1.34s.5.06 1.32.08l4.38-4.39v-.005l2.465.5c.0659216.0126035.1328844.018965.2.019.5137531.0005163.9443106-.3883485.9959422-.8995008.0516315-.5111523-.2924636-.9782648-.7959422-1.0804992l-1.175-.239.006-.006 1.3-1.29 2.459.5c.0659216.0126035.1328844.018965.2.019.5137531.0005163.9443106-.3883485.9959422-.8995008.0516315-.5111523-.2924636-.9782648-.7959422-1.0804992l-1.17-.237 2.885-2.881c.3899779-.3930079.3899779-1.0269921 0-1.42z" fill="#14a085"/><rect id="Rectangle-path" fill="#7f6e5d" height="6" rx="3" width="26" x="7" y="18"/><path id="Shape" d="m23 24h6v7c0 1.6568542-1.3431458 3-3 3s-3-1.3431458-3-3z" fill="#5f5346"/></g></svg>