<?xml version="1.0" encoding="iso-8859-1"?>
<!-- Generator: Adobe Illustrator 19.0.0, SVG Export Plug-In . SVG Version: 6.00 Build 0)  -->
<svg xmlns="http://www.w3.org/2000/svg" xmlns:xlink="http://www.w3.org/1999/xlink" version="1.1" id="Layer_1" x="0px" y="0px" viewBox="0 0 512 512" style="enable-background:new 0 0 512 512;" xml:space="preserve" width="512" height="512">
<g>
	<g>
		<path style="fill:#C3EA21;" d="M132.017,152.886c-30.205-30.19-46.831-70.342-46.831-113.027V0h39.858    c42.7,0,82.837,16.626,113.027,46.816c29.238,29.238,29.238,76.831,0,106.069C208.84,182.147,161.357,182.257,132.017,152.886z"/>
	</g>
	<g>
		<path style="fill:#8EDB5A;" d="M334.114,152.886c-29.238-29.238-29.238-76.831,0-106.069C364.305,16.626,404.441,0,447.142,0H487    v39.858c0,42.686-16.626,82.837-46.831,113.027C410.938,182.147,363.455,182.257,334.114,152.886z"/>
	</g>
	<path style="fill:#8EDB5A;" d="M418.299,89.099l-61.8,62.1C320.799,186.899,301,236.6,301,287h-30   c0-50.4-19.799-100.101-55.499-135.801l-61.8-62.1l20.999-21l62.1,62.1c21.901,21.601,38.401,47.401,49.2,75.3   c10.8-27.9,27.299-53.699,49.2-75.3l62.1-62.1L418.299,89.099z"/>
	<path style="fill:#5DC379;" d="M301,287h-15v-81.501c10.8-27.9,27.299-53.699,49.2-75.3l62.1-62.1l20.999,21l-61.8,62.1   C320.799,186.899,301,236.6,301,287z"/>
	<path style="fill:#766E6E;" d="M421,407c0,15.899-3.3,30.899-8.401,45H159.401C154.3,437.899,151,422.899,151,407   c0-74.7,60.3-135,135-135S421,332.3,421,407z"/>
	<path style="fill:#5B5555;" d="M421,407c0,15.899-3.3,30.899-8.401,45H286V272C360.7,272,421,332.3,421,407z"/>
	<g>
		<path style="fill:#FDE4E4;" d="M512,400.099l-76.601,51.301c-50.4,34.501-88.499,56.4-149.399,60c-6,0.3-12.299,0.601-18.9,0.601    c-38.399,0-64.2-6-91.199-12.301C140.2,491.3,98.699,482,15,482H0V332h71.499c60.901-40.201,77.1-35.4,142.5,9    c5.7,3.9,12.301,6,19.2,6H286c30,0,56.1,17.999,68.101,44.099c-21.901,9.3-45,15.3-68.101,15.901c-3.6,0.3-7.2,0.3-10.8,0.3    c-41.4-1.201-69.3-13.2-74.401-14.401l-9.598,28.2c4.499,1.201,39.3,15.601,85.8,16.201c2.999,0,6,0,9-0.3    c53.699-1.5,105.601-24,147.001-57.001c21.299-17.401,55-15.601,70.3,7.2C513.199,401.899,511.099,398.299,512,400.099z"/>
	</g>
	<path style="fill:#FCCED3;" d="M354.101,391.099c-21.901,9.3-45,15.3-68.101,15.901v-60C316,347,342.1,364.999,354.101,391.099z"/>
	<path style="fill:#FCCED3;" d="M512,400.099l-76.601,51.301c-50.4,34.501-88.499,56.4-149.399,60V437   c53.699-1.5,105.601-24,147.001-57.001c21.299-17.401,55-15.601,70.3,7.2C513.199,401.899,511.099,398.299,512,400.099z"/>
</g>















</svg>
