<?xml version="1.0" encoding="iso-8859-1"?>
<!-- Generator: Adobe Illustrator 19.0.0, SVG Export Plug-In . SVG Version: 6.00 Build 0)  -->
<svg version="1.1" id="Capa_1" xmlns="http://www.w3.org/2000/svg" xmlns:xlink="http://www.w3.org/1999/xlink" x="0px" y="0px"
	 viewBox="0 0 512 512" style="enable-background:new 0 0 512 512;" xml:space="preserve">
<path style="fill:#BFFB32;" d="M511.306,205.805c-0.712-7.447-6.607-13.342-14.054-14.054
	c-4.172-0.398-102.848-9.104-160.309,48.358c-12.46,12.46-21.804,26.858-28.802,41.809c-11.523-47.184-32.019-86.331-60.158-114.469
	c-34.681-34.681-86.083-57.755-148.647-66.726c-46.552-6.676-82.801-3.341-84.321-3.194c-7.447,0.712-13.342,6.607-14.054,14.054
	c-0.146,1.52-3.481,37.768,3.194,84.321c8.971,62.564,32.044,113.967,66.726,148.647c34.681,34.681,86.083,57.755,148.647,66.726
	c23.041,3.304,43.553,4.155,58.583,4.155c13.62-0.001,22.724-0.698,25.134-0.907c2.061,0.177,8.336,0.64,17.473,0.64
	c31.958,0,98.844-5.664,142.23-49.052C520.409,308.654,511.705,209.979,511.306,205.805z"/>
<g>
	<path style="fill:#8CDC52;" d="M415.84,292.074c-6.095-6.095-15.979-6.095-22.076,0L308.1,377.739L175.326,244.963
		c-6.095-6.095-15.979-6.095-22.076,0s-6.096,15.979,0,22.076l142.933,142.933c3.048,3.048,7.043,4.573,11.037,4.573
		c0.293,0,0.587-0.025,0.88-0.043c0.293,0.017,0.587,0.043,0.88,0.043c3.995,0,7.99-1.525,11.037-4.573l95.821-95.822
		C421.936,308.053,421.936,298.169,415.84,292.074z"/>
	<path style="fill:#8CDC52;" d="M497.252,191.751c-4.172-0.398-102.848-9.104-160.309,48.358
		c-12.46,12.46-21.804,26.858-28.802,41.809c-0.152-0.622-0.312-1.237-0.467-1.857v134.767c3.129,0.172,7.567,0.337,13.044,0.337
		c31.958,0,98.844-5.664,142.23-49.052c57.461-57.461,48.756-156.136,48.358-160.309
		C510.595,198.358,504.699,192.463,497.252,191.751z"/>
</g>
<path style="fill:#5DC378;" d="M393.765,292.074l-85.664,85.665l-0.426-0.426v37.209c0.142-0.008,0.284-0.012,0.426-0.021
	c0.293,0.017,0.587,0.043,0.88,0.043c3.995,0,7.99-1.525,11.037-4.573l95.821-95.822c6.096-6.095,6.096-15.979,0-22.076
	C409.744,285.978,399.86,285.978,393.765,292.074z"/>
<g>
</g>
<g>
</g>
<g>
</g>
<g>
</g>
<g>
</g>
<g>
</g>
<g>
</g>
<g>
</g>
<g>
</g>
<g>
</g>
<g>
</g>
<g>
</g>
<g>
</g>
<g>
</g>
<g>
</g>
</svg>
